<?xml version="1.0" encoding="utf-8" standalone="no"?>
<svg xmlns:dc="http://purl.org/dc/elements/1.1/"
xmlns:cc="http://web.resource.org/cc/"
xmlns:rdf="http://www.w3.org/1999/02/22-rdf-syntax-ns#"
xmlns:svg="http://www.w3.org/2000/svg"
xmlns="http://www.w3.org/2000/svg" version="1.0" height="150"
width="200">
  <metadata>
    <rdf:RDF>
      <cc:Work rdf:about="">
        <dc:format>image/svg+xml</dc:format>
        <dc:type rdf:resource="http://purl.org/dc/dcmitype/StillImage" />
        <cc:license rdf:resource="http://web.resource.org/cc/PublicDomain" />
      </cc:Work>
      <cc:License rdf:about="http://web.resource.org/cc/PublicDomain">

        <cc:permits rdf:resource="http://web.resource.org/cc/Reproduction" />
        <cc:permits rdf:resource="http://web.resource.org/cc/Distribution" />
        <cc:permits rdf:resource="http://web.resource.org/cc/DerivativeWorks" />
      </cc:License>
    </rdf:RDF>
  </metadata>
  <defs>
    <defs />
  </defs>
  <g>
    <path d="M 90.093,115.14 L 90.093,142.54"
    style="fill:none;stroke:#000000;stroke-width:2.7568" />
    <path d="M 90.093,128.75 L 55.288,128.75"
    style="fill:none;stroke:#000000;stroke-width:2.7568" />
    <path d="M 116.63,128.75 L 144.71,128.75"
    style="fill:none;stroke:#000000;stroke-width:2.7568" />
    <path d="M 76.825,112.38 C 88.606,112.48 100.4,112.18 112.17,112.54 C 115.17,112.18 116.95,114.94 116.65,117.69 C 116.51,125.58 116.83,133.5 116.49,141.39 C 116.43,145.28 112.03,144.77 109.3,144.95 C 98.475,144.94 87.65,144.95 76.825,144.95"
    style="fill:none;stroke:#000000;stroke-width:2.7568" />
    <path d="M 144.82,47.254 C 141.01,47.235 135.76,47.4 134.11,43.33 C 132.95,39.774 130.73,35.368 126.44,35.288 C 122.18,36.404 121.35,41.556 120.66,45.278 C 119.55,48.44 123.6,52.832 125.35,48.454 C 126.93,44.182 124.98,39.233 121.87,36.179 C 117.95,33.525 113.54,37.2 113.5,41.383 C 112.76,44.205 111.58,47.746 113.75,50.23 C 117.77,52.35 118.44,44.64 117.03,42.024 C 116.28,38.334 112.78,33.369 108.56,35.917 C 105.21,37.693 105.02,41.981 104.28,45.249 C 103.1,48.442 107.23,52.935 109.04,48.609 C 110.46,44.613 108.45,40.343 106.37,36.98 C 103.88,33.986 98.519,35.398 97.672,39.136 C 96.612,42.56 94.762,47.175 97.566,50.195 C 101.98,50.88 102,44.835 100.65,41.949 C 99.821,38.827 97.503,35.005 93.812,35.362 C 89.321,36.629 88.766,41.938 87.76,45.728 C 86.68,49.299 92.116,52.833 92.97,48.069 C 94.102,43.207 91.655,37.707 87.388,35.186 C 82.531,34.401 80.812,40.495 80.047,44.215 C 78.041,47.36 82.196,53.518 84.661,48.765 C 85.581,45.199 84.641,41.15 82.614,38.104 C 80.937,35.021 76.017,33.936 74.308,37.607 C 72.505,41.069 70.427,45.868 72.476,49.568 C 75.247,52.776 77.465,47.805 76.948,45.249 C 76.989,41.718 74.899,37.233 70.919,37.119 C 66.823,38.154 66.797,43.37 63.965,45.848 C 61.649,48.356 58.247,47.208 55.264,47.254"
    style="fill:none;stroke:#000000;stroke-width:2.7568" />
    <circle transform="matrix(0.1723,0,0,0.1723,-83.069,-82.833)"
    cx="1559" cy="992" r="47"
    style="fill:none;stroke:#000000;stroke-width:16" />
    <circle transform="matrix(0.1723,0,0,0.1723,-83.069,-82.833)"
    cx="566" cy="992" r="47"
    style="fill:none;stroke:#000000;stroke-width:16" />
    <path d="M 144.71,47.254 L 152.98,47.254 L 152.98,128.75 L 144.71,128.75"
    style="fill:none;stroke:#000000;stroke-width:2.7568" />
    <path d="M 152.98,88.089 L 177.28,88.089"
    style="fill:none;stroke:#000000;stroke-width:2.7568" />
    <path d="M 55.288,47.254 L 47.018,47.254 L 47.018,128.75 L 55.288,128.75"
    style="fill:none;stroke:#000000;stroke-width:2.7568" />
    <path d="M 22.723,88.089 L 47.018,88.089"
    style="fill:none;stroke:#000000;stroke-width:2.7568" />
    <path d="M 102.16,101.46 C 99.995,102.18 99.217,100.09 99.745,98.32 C 99.702,94.059 99.955,89.772 99.54,85.528 C 98.834,83.402 96.071,83.484 94.416,84.362 C 92.091,85.019 92.56,87.462 92.629,89.293 C 92.643,91.591 92.599,93.889 92.622,96.187 C 90.546,96.873 89.654,94.939 90.218,93.189 C 90.218,89.427 90.218,85.665 90.218,81.903 C 91.561,81.294 92.919,82.623 92.883,83.152 C 94.868,81.894 97.398,80.778 99.689,81.977 C 102.42,83.229 102.23,86.632 102.16,89.154 C 102.15,93.255 102.16,97.358 102.16,101.46 z"
    style="font-size:26.2px;font-style:normal;font-weight:normal;text-anchor:start;fill:#000000;stroke:#000000;stroke-width:0.00431in;font-family:AvantGarde" />
    <text x="87.8526" y="22.9592"
    style="font-size:26.2px;font-style:normal;font-weight:normal;text-anchor:start;fill:#000000;stroke:#000000;stroke-width:0.00431in;font-family:AvantGarde">
    E</text>
  </g>
</svg>
